<?xml version="1.0" encoding="UTF-8" standalone="no"?>
<svg width="66px" height="56px" viewBox="0 0 66 56" version="1.1" xmlns="http://www.w3.org/2000/svg" xmlns:xlink="http://www.w3.org/1999/xlink" xmlns:sketch="http://www.bohemiancoding.com/sketch/ns">
    <!-- Generator: Sketch 3.3.2 (12043) - http://www.bohemiancoding.com/sketch -->
    <title>filter</title>
    <desc>Created with Sketch.</desc>
    <defs></defs>
    <g id="Android-Icons" stroke="none" stroke-width="1" fill="none" fill-rule="evenodd" sketch:type="MSPage">
        <path d="M0,0 L25.5,31.5 L25.5,52.5 C25.5,54.1569 28.8579,55.5 33,55.5 C37.1421,55.5 40.5,54.1569 40.5,52.5 L40.5,31.5 L66,0 L0,0 L0,0 Z M9.4218,4.5 L56.5782,4.5 L36.9843,28.6875 L36,29.9063 L36,31.5 L36,50.5313 C35.2721,50.7464 34.3172,51 33,51 C31.6829,51 30.728,50.7464 30,50.5313 L30,31.5 L30,29.9063 L29.0157,28.6875 L9.4218,4.5 L9.4218,4.5 Z" id="filter" fill="#000000" sketch:type="MSShapeGroup"></path>
    </g>
</svg>